<mxfile host="Electron" agent="Mozilla/5.0 (Windows NT 10.0; Win64; x64) AppleWebKit/537.36 (KHTML, like Gecko) draw.io/27.0.9 Chrome/134.0.6998.205 Electron/35.4.0 Safari/537.36" version="27.0.9">
  <diagram name="Page-1" id="QTJDFzRhB6pFvLaygsUB">
    <mxGraphModel dx="812" dy="698" grid="1" gridSize="10" guides="1" tooltips="1" connect="1" arrows="1" fold="1" page="1" pageScale="1" pageWidth="827" pageHeight="1169" math="0" shadow="0">
      <root>
        <mxCell id="0" />
        <mxCell id="1" parent="0" />
        <mxCell id="sriUqYRCWYWf8X1t5SnM-6" value="User" style="swimlane;childLayout=stackLayout;horizontal=1;startSize=50;horizontalStack=0;rounded=1;fontSize=14;fontStyle=0;strokeWidth=2;resizeParent=0;resizeLast=1;shadow=0;dashed=0;align=center;arcSize=4;whiteSpace=wrap;html=1;" vertex="1" parent="1">
          <mxGeometry x="280" y="250" width="160" height="140" as="geometry" />
        </mxCell>
        <mxCell id="sriUqYRCWYWf8X1t5SnM-7" value="- ID&lt;div&gt;- pseudo&lt;/div&gt;&lt;div&gt;- email&lt;/div&gt;&lt;div&gt;- password&lt;/div&gt;&lt;div&gt;- created_at&lt;/div&gt;" style="align=left;strokeColor=none;fillColor=none;spacingLeft=4;spacingRight=4;fontSize=12;verticalAlign=top;resizable=0;rotatable=0;part=1;html=1;whiteSpace=wrap;" vertex="1" parent="sriUqYRCWYWf8X1t5SnM-6">
          <mxGeometry y="50" width="160" height="90" as="geometry" />
        </mxCell>
        <mxCell id="sriUqYRCWYWf8X1t5SnM-8" value="CRUD" style="shape=rhombus;perimeter=rhombusPerimeter;whiteSpace=wrap;html=1;align=center;" vertex="1" parent="1">
          <mxGeometry x="300" y="440" width="120" height="60" as="geometry" />
        </mxCell>
        <mxCell id="sriUqYRCWYWf8X1t5SnM-9" style="edgeStyle=orthogonalEdgeStyle;rounded=0;orthogonalLoop=1;jettySize=auto;html=1;exitX=0.5;exitY=1;exitDx=0;exitDy=0;entryX=0.5;entryY=0;entryDx=0;entryDy=0;endArrow=none;startFill=0;" edge="1" parent="1" source="sriUqYRCWYWf8X1t5SnM-7" target="sriUqYRCWYWf8X1t5SnM-8">
          <mxGeometry relative="1" as="geometry" />
        </mxCell>
        <mxCell id="sriUqYRCWYWf8X1t5SnM-10" value="1,n" style="edgeLabel;html=1;align=center;verticalAlign=middle;resizable=0;points=[];" vertex="1" connectable="0" parent="sriUqYRCWYWf8X1t5SnM-9">
          <mxGeometry x="-0.0133" y="-1" relative="1" as="geometry">
            <mxPoint as="offset" />
          </mxGeometry>
        </mxCell>
        <mxCell id="sriUqYRCWYWf8X1t5SnM-11" value="Recipe" style="swimlane;childLayout=stackLayout;horizontal=1;startSize=50;horizontalStack=0;rounded=1;fontSize=14;fontStyle=0;strokeWidth=2;resizeParent=0;resizeLast=1;shadow=0;dashed=0;align=center;arcSize=4;whiteSpace=wrap;html=1;" vertex="1" parent="1">
          <mxGeometry x="280" y="550" width="160" height="150" as="geometry" />
        </mxCell>
        <mxCell id="sriUqYRCWYWf8X1t5SnM-12" value="- ID&lt;div&gt;- user_id&lt;/div&gt;&lt;div&gt;- title&lt;/div&gt;&lt;div&gt;- content&lt;/div&gt;&lt;div&gt;- created_at&lt;/div&gt;&lt;div&gt;-updated_at&lt;/div&gt;" style="align=left;strokeColor=none;fillColor=none;spacingLeft=4;spacingRight=4;fontSize=12;verticalAlign=top;resizable=0;rotatable=0;part=1;html=1;whiteSpace=wrap;" vertex="1" parent="sriUqYRCWYWf8X1t5SnM-11">
          <mxGeometry y="50" width="160" height="100" as="geometry" />
        </mxCell>
        <mxCell id="sriUqYRCWYWf8X1t5SnM-13" value="" style="edgeStyle=orthogonalEdgeStyle;rounded=0;orthogonalLoop=1;jettySize=auto;html=1;endArrow=none;startFill=0;exitX=0.5;exitY=0;exitDx=0;exitDy=0;" edge="1" parent="1" source="sriUqYRCWYWf8X1t5SnM-11" target="sriUqYRCWYWf8X1t5SnM-8">
          <mxGeometry relative="1" as="geometry" />
        </mxCell>
        <mxCell id="sriUqYRCWYWf8X1t5SnM-15" value="1,1" style="edgeLabel;html=1;align=center;verticalAlign=middle;resizable=0;points=[];" vertex="1" connectable="0" parent="sriUqYRCWYWf8X1t5SnM-13">
          <mxGeometry x="0.16" relative="1" as="geometry">
            <mxPoint as="offset" />
          </mxGeometry>
        </mxCell>
      </root>
    </mxGraphModel>
  </diagram>
</mxfile>
